<?xml version="1.0" encoding="UTF-8" standalone="no" ?>
<!DOCTYPE svg PUBLIC "-//W3C//DTD SVG 1.1//EN" "http://www.w3.org/Graphics/SVG/1.1/DTD/svg11.dtd">
<svg xmlns="http://www.w3.org/2000/svg" xmlns:xlink="http://www.w3.org/1999/xlink" version="1.1" width="1080" height="1080" viewBox="0 0 1080 1080" xml:space="preserve">
<desc>Created with Fabric.js 5.2.4</desc>
<defs>
</defs>
<rect x="0" y="0" width="100%" height="100%" fill="transparent"></rect>
<g transform="matrix(1 0 0 1 540 540)" id="248f02fb-8b4f-4c0e-afe3-bfcd5038bf76"  >
<rect style="stroke: none; stroke-width: 1; stroke-dasharray: none; stroke-linecap: butt; stroke-dashoffset: 0; stroke-linejoin: miter; stroke-miterlimit: 4; fill: rgb(255,255,255); fill-rule: nonzero; opacity: 1; visibility: hidden;" vector-effect="non-scaling-stroke"  x="-540" y="-540" rx="0" ry="0" width="1080" height="1080" />
</g>
<g transform="matrix(1 0 0 1 540 540)" id="765b47b5-cf67-41ab-a3e5-54756aaae6d7"  >
</g>
<g transform="matrix(32.21 0 0 32.21 540 578.51)" id="36be3faa-ad3f-4d57-9d05-fbc2f2d9f6b2"  >
<path style="stroke: rgb(0,0,0); stroke-width: 0; stroke-dasharray: none; stroke-linecap: butt; stroke-dashoffset: 0; stroke-linejoin: miter; stroke-miterlimit: 4; fill: rgb(255,254,254); fill-rule: nonzero; opacity: 1;" vector-effect="non-scaling-stroke"  transform=" translate(-16, -15.73)" d="M 9.563 26.873 C 8.343 25.913 7.043000000000001 24.995 6.155000000000001 23.701 C 4.285000000000001 21.418 2.845000000000001 18.776 1.8610000000000015 15.998000000000001 C 1.2660000000000016 14.192 1.0610000000000015 12.255 0.2950000000000015 10.518 C -0.5069999999999986 9.258000000000001 0.4330000000000015 7.878 1.8150000000000015 7.478000000000001 C 2.4300000000000015 7.36 3.5110000000000015 6.7780000000000005 2.2050000000000014 7.194000000000001 C 1.0350000000000015 8.052000000000001 0.9220000000000015 6.414000000000001 2.122000000000001 6.3100000000000005 C 2.942000000000001 6.2 3.2420000000000013 5.53 2.962000000000001 4.928000000000001 C 2.082000000000001 4.354000000000001 5.094000000000001 3.7250000000000005 3.578000000000001 2.8680000000000008 C 2 1.168 5.786 0.84 4.852 2.774 C 4.63 4.26 7.498 2.5 6.832 4.218 C 7.509 5.043 9.366 4.406 9.318999999999999 5.563 C 10.305 5.630999999999999 10.642999999999999 6.46 11.568999999999999 6.523 C 12.529 6.9559999999999995 14.265999999999998 7.297 14.591999999999999 8.378 C 13.642 9.131 11.438999999999998 6.823 11.331999999999999 8.908 C 11.62 11.988 11.546 15.16 12.671999999999999 18.093 C 13.204999999999998 19.868 14.496999999999998 21.266 15.661999999999999 22.649 C 16.779 24.003 18.291999999999998 24.957 19.832 25.759 C 21.184 26.397000000000002 22.642 26.819 24.115000000000002 27.085 C 24.712000000000003 26.628 25.768 24.929000000000002 26.699 25.645 C 26.744000000000003 26.451 24.849 27.329 26.609 27.24 C 27.644000000000002 26.927999999999997 28.361 28.04 29.212000000000003 27.035999999999998 C 29.997000000000003 27.965999999999998 32.472 26.442999999999998 31.915000000000003 28.342 C 31.160000000000004 28.828999999999997 30.059 28.535 29.303000000000004 29.205 C 28.056000000000004 28.581999999999997 27.063000000000002 29.761999999999997 25.683000000000003 29.613 C 24.150000000000002 29.887999999999998 22.591000000000005 29.998 21.037000000000003 30 C 18.487000000000002 29.8 15.884000000000004 29.714 13.459000000000003 28.826 C 12.092000000000002 28.429000000000002 10.759000000000004 27.651 9.559000000000003 26.872 z M 11.716000000000001 27.806 C 13.05 28.382 14.356000000000002 28.990000000000002 15.816 29.174 C 18.136 29.496 20.531 29.994 22.859 29.54 C 21.805000000000003 29.064 20.716 29.724999999999998 19.666 29.2 C 18.406 29.47 17.066 29.13 15.766 28.963 C 14.311 28.315 12.74 27.869 11.378 27.027 C 9.675 26.405 12.258000000000001 27.825000000000003 12.718 27.94 C 13.782 28.544 11.548 27.64 11.232 27.380000000000003 C 10.34 26.880000000000003 10.227 26.984 11.144 27.492 L 11.704 27.806 z M 9.176000000000002 26.012 C 10.469000000000001 26.492 9.170000000000002 25.102 8.579000000000002 25.182000000000002 C 8.317000000000002 24.727000000000004 7.576000000000002 24.439000000000004 8.099000000000002 24.195000000000004 C 7.1590000000000025 24.521000000000004 7.115000000000002 22.955000000000005 6.674000000000002 23.179000000000002 C 5.680000000000002 22.865000000000002 6.287000000000003 21.753000000000004 5.104000000000002 21.069000000000003 C 4.996000000000002 20.349000000000004 3.9280000000000017 19.726000000000003 3.588000000000002 18.641000000000002 C 3.438000000000002 18.085 2.381000000000002 16.491000000000003 3.030000000000002 17.975 C 3.582000000000002 19.405 4.554000000000002 20.628 5.3640000000000025 21.85 C 5.992000000000003 23.014000000000003 6.734000000000003 24.23 7.878000000000002 24.957 C 8.264000000000001 25.327 8.636000000000003 25.894000000000002 9.180000000000001 26.01 z M 5.452000000000002 21.922 C 5.497000000000002 21.727 5.6880000000000015 22.344 5.452000000000002 21.922 z M 10.725000000000001 26.585 C 11.011000000000001 26.457 10.313 26.423000000000002 10.725000000000001 26.585 z M 11.425 26.841 C 11.352 26.488 11.105 27.039 11.425 26.841 z M 12.305000000000001 27.207 C 12.723 26.809 11.660000000000002 26.957 12.305000000000001 27.207 z M 13.811000000000002 28.047 C 14.065000000000001 27.672 12.998000000000001 27.907 13.811000000000002 28.047 z M 10.921000000000001 26.032 C 11.571000000000002 25.612 10.081000000000001 26.026 10.921000000000001 26.032 z M 11.581000000000001 26.362 C 11.561000000000002 26.139999999999997 11.346000000000002 26.462 11.581000000000001 26.362 z M 14.874000000000002 28.418 C 15.404000000000002 28.752 17.966 29.15 16.362000000000002 28.555 C 16.092000000000002 28.611 13.387000000000002 27.789 14.874000000000002 28.418 z M 9.646000000000003 24.346 C 9.596000000000002 24.124 8.824000000000003 24.1 9.646000000000003 24.346 z M 11.179000000000002 25.24 C 11.579000000000002 24.959999999999997 10.351000000000003 25.025 11.179000000000002 25.24 z M 12.479000000000003 26.04 C 13.052000000000003 25.823999999999998 11.551000000000002 25.823 12.479000000000003 26.04 z M 9.02 23.665 C 9.639999999999999 24.141 11.526 23.724999999999998 9.969999999999999 23.381 C 9.262999999999998 23.004 7.669999999999999 22.746 8.755999999999998 23.608 L 9.018999999999998 23.665 z M 13.34 26.302 C 13.6 25.862 12.254 26.05 13.34 26.302 z M 12.027 25.259 C 13.546999999999999 25.689 10.75 24.299 11.652 25.099 L 11.851999999999999 25.189 L 12.027 25.257 z M 14.658999999999999 26.779 C 16.099 26.793 13.358999999999998 26.579 14.658999999999999 26.779 z M 8.466 22.832 C 8.41 22.564 8.110999999999999 22.854 8.466 22.832 z M 17.093 28.144000000000002 C 17.131 27.660000000000004 16.623 28.504 17.093 28.144000000000002 z M 10.923 24.334000000000003 C 10.836 24.079000000000004 10.473 24.324 10.923 24.334000000000003 z M 8.603 22.664 C 9.429 22.614 7.473 22.3 8.603 22.664 z M 5.856 20.89 C 5.753 20.494 4.958 20.178 5.856 20.89 z M 13.068 25.467 C 12.918 25.294 12.998 25.503999999999998 13.068 25.467 z M 17.556 28.221999999999998 C 17.542 27.958 17.312 28.322 17.556 28.221999999999998 z M 12.671000000000001 25.057 C 12.751000000000001 24.717 11.966000000000001 24.953999999999997 12.671000000000001 25.057 z M 9.327000000000002 22.936999999999998 C 9.942000000000002 22.871999999999996 8.342000000000002 22.522 9.327000000000002 22.936999999999998 z M 14.983 26.451999999999998 C 15.941 26.072 14.05 26.267 14.983 26.451999999999998 z M 12.041 24.455 C 13.144 24.596999999999998 10.728 23.705 11.798 24.375 L 12.041 24.455 z M 15.876000000000001 26.813 C 16.906000000000002 26.198 16.566000000000003 28.256 17.624000000000002 26.987 C 18.667 26.224999999999998 16.724000000000004 27.929 18.008000000000003 27.122999999999998 C 18.938000000000002 26.500999999999998 20.311000000000003 27.418 21.178000000000004 27.715999999999998 C 21.802000000000003 27.685999999999996 22.408000000000005 28.255999999999997 23.048000000000005 27.909 C 24.278000000000006 27.576999999999998 20.640000000000004 27.416999999999998 21.594000000000005 26.829 C 20.468000000000004 27.157 19.636000000000006 26.439 19.081000000000003 25.717 C 17.817000000000004 25.424999999999997 16.357000000000003 24.779 15.726000000000003 23.660999999999998 C 15.469000000000003 23.240999999999996 16.096000000000004 23.720999999999997 15.504000000000003 23.034 C 14.744000000000003 22.357 14.364000000000003 21.587999999999997 13.852000000000004 20.764 C 13.242000000000004 20.439 13.169000000000004 19.48 13.108000000000004 20.732 C 13.113000000000005 19.942 12.371000000000004 19.409 12.188000000000004 19.63 C 12.185000000000004 18.869999999999997 12.983000000000004 19.25 12.424000000000005 18.688 C 12.304000000000006 17.898 11.908000000000005 17.078 11.790000000000004 16.186 C 11.605000000000004 15.756 11.764000000000005 14.836 11.160000000000004 15.809 C 10.940000000000003 16.836 11.087000000000003 14.546999999999999 11.430000000000003 15.300999999999998 C 11.880000000000003 14.530999999999999 11.268000000000002 14.620999999999999 11.244000000000003 14.727999999999998 C 11.537000000000003 14.077999999999998 11.430000000000003 13.155999999999999 11.167000000000003 13.507999999999997 C 11.323000000000004 12.817999999999998 11.414000000000003 10.972999999999997 10.934000000000003 11.299999999999997 C 11.224000000000002 10.579999999999997 11.486000000000002 8.002999999999997 10.222000000000003 8.984999999999998 C 9.710000000000003 8.991999999999997 8.824000000000003 9.170999999999998 8.405000000000003 9.378999999999998 C 9.718000000000004 10.102999999999998 8.273000000000003 9.640999999999998 7.737000000000003 9.524999999999999 C 7.6670000000000025 10.194999999999999 7.137000000000003 9.905 6.477000000000003 9.911999999999999 C 7.535000000000003 10.042 5.962000000000003 10.991999999999999 5.357000000000003 10.623999999999999 C 4.569000000000003 10.999999999999998 6.037000000000003 11.94 5.3720000000000026 12.230999999999998 C 5.454000000000002 12.667999999999997 4.165000000000003 12.072999999999999 4.266000000000003 13.084999999999997 C 3.5020000000000024 12.762999999999998 4.161000000000002 14.284999999999997 4.544000000000002 13.769999999999998 C 5.844000000000002 14.121999999999998 5.459000000000002 14.923999999999998 5.492000000000003 15.686999999999998 C 5.280000000000003 16.130999999999997 4.446000000000002 14.642999999999997 5.306000000000003 14.711999999999998 C 4.626000000000003 13.608999999999998 4.556000000000003 14.311999999999998 3.9910000000000028 14.825999999999999 C 3.861000000000003 14.863 5.431000000000003 15.556 4.445000000000003 15.895999999999999 C 5.312000000000003 16.029999999999998 5.337000000000003 16.788999999999998 5.5130000000000035 17.268 C 6.033000000000003 17.811 5.926000000000004 16.668 6.550000000000003 17.321 C 6.155000000000003 16.741000000000003 4.4600000000000035 15.684000000000001 5.825000000000004 16.021 C 5.818000000000004 15.437000000000001 5.578000000000004 14.965 5.997000000000003 14.976 C 6.4120000000000035 14.226 5.563000000000003 16.826 6.497000000000003 15.872000000000002 C 6.7550000000000034 15.759000000000002 6.820000000000004 15.122000000000002 7.284000000000003 15.932000000000002 C 7.958000000000004 16.596000000000004 7.528000000000003 17.076 6.576000000000003 16.468000000000004 C 6.746000000000003 17.046000000000003 7.849000000000003 17.252000000000002 7.641000000000004 18.155000000000005 C 7.861000000000003 18.950000000000006 8.168000000000003 18.657000000000004 8.436000000000003 18.611000000000004 C 8.636000000000003 19.383000000000003 8.766000000000004 18.815000000000005 8.776000000000003 18.448000000000004 C 9.738000000000003 18.654000000000003 9.512000000000004 19.223000000000003 9.814000000000004 19.620000000000005 C 10.477000000000004 19.920000000000005 8.864000000000004 17.592000000000006 10.004000000000003 18.920000000000005 C 11.201000000000004 20.000000000000007 10.454000000000002 20.453000000000007 9.379000000000003 20.280000000000005 C 10.059000000000003 20.225000000000005 10.279000000000003 21.200000000000006 11.129000000000003 21.165000000000006 C 11.905000000000003 21.535000000000007 12.429000000000004 22.952000000000005 11.093000000000004 22.361000000000008 C 10.630000000000004 21.94300000000001 8.987000000000004 21.427000000000007 10.329000000000004 22.221000000000007 C 11.567000000000004 22.79500000000001 12.551000000000004 23.137000000000008 13.745000000000005 23.858000000000008 C 14.599000000000004 24.45800000000001 14.968000000000005 25.166000000000007 15.292000000000005 25.305000000000007 C 14.574000000000005 25.648000000000007 13.128000000000005 25.031000000000006 14.192000000000005 24.842000000000006 C 13.522000000000006 24.720000000000006 12.768000000000006 24.382000000000005 13.410000000000005 25.216000000000005 C 13.956000000000005 25.672000000000004 15.343000000000005 25.624000000000006 15.592000000000006 25.676000000000005 C 15.382000000000005 26.140000000000004 15.019000000000005 26.176000000000005 15.600000000000005 26.213000000000005 C 14.952000000000005 26.559000000000005 15.808000000000005 26.613000000000003 15.868000000000006 26.810000000000006 z M 14.55 23.069 C 14.155000000000001 22.656 14.053 21.884 14.48 22.555999999999997 C 14.700000000000001 22.644 15.18 23.818999999999996 14.55 23.069 z M 18.87 25.8 C 19.116 25.784000000000002 18.877000000000002 25.987000000000002 18.87 25.8 z M 13.93 22.045 C 13.914 21.421000000000003 14.072 22.525000000000002 13.93 22.045 z M 13.5 21.468000000000004 C 13.003 20.508000000000003 14.125 21.738000000000003 13.5 21.468000000000004 z M 8.298 17.868000000000002 C 8.59 17.790000000000003 8.442 18.366000000000003 8.298 17.868000000000002 z M 12.437999999999999 20.112000000000002 C 12.617999999999999 19.439 12.637999999999998 20.676000000000002 12.437999999999999 20.112000000000002 z M 9.512999999999998 18.078000000000003 C 9.306999999999999 17.708000000000002 9.942999999999998 18.426000000000002 9.512999999999998 18.078000000000003 z M 12.022999999999998 18.882 C 11.552999999999997 17.829 12.356999999999998 18.307000000000002 12.127999999999998 19.054000000000002 L 12.022999999999998 18.882 z M 7.694999999999998 15.996000000000002 C 7.494999999999997 15.650000000000002 7.137999999999997 14.636000000000003 7.249999999999997 14.326000000000002 C 7.349999999999997 14.830000000000002 8.321999999999997 16.496000000000002 7.725999999999997 15.026000000000002 C 7.067999999999997 13.786000000000001 8.512999999999998 15.428 8.661999999999997 15.738000000000001 C 8.731999999999998 16.045 8.255999999999997 15.654000000000002 8.577999999999998 16.376 C 7.9899999999999975 15.554000000000002 8.230999999999998 16.830000000000002 7.695999999999998 16.006 z M 6.357999999999998 15.074000000000002 C 6.412999999999998 14.270000000000001 6.663999999999998 15.624000000000002 6.357999999999998 15.074000000000002 z M 6.959999999999998 15.282000000000002 C 7.246999999999998 14.676000000000002 7.445999999999998 16.127000000000002 6.959999999999998 15.282000000000002 z M 5.5 14.182 C 5.002 13.687000000000001 4.642 13.232000000000001 5.524 13.875 C 5.864 13.888 4.769 12.838000000000001 5.606 13.541 C 6.486 13.701 6.04 14.984 5.5009999999999994 14.181000000000001 z M 6.26 14.162 C 6.55 13.875 6.414 14.444 6.26 14.162 z M 6.728 14.312000000000001 C 6.287999999999999 13.490000000000002 7.26 14.657000000000002 6.728 14.312000000000001 z M 5.798 13.424000000000001 C 4.35 12.134 7.618 14.097000000000001 6.034 13.664000000000001 L 5.798 13.424000000000001 z M 9.946 15.834000000000001 C 9.318999999999999 15.459000000000001 9.779 13.190000000000001 9.993 14.741000000000001 C 10.603 14.544000000000002 9.959 15.543000000000001 10.413 15.533000000000001 C 10.343 16.163 10.138 16.39 9.946 15.833000000000002 z M 11.48 16.741 C 11.540000000000001 16.057 11.610000000000001 17.209 11.48 16.741 z M 11.214 16.477 C 11.284 16.185 11.22 16.821 11.214 16.477 z M 6.092 13 C 5.162 11.717 8.795 14.298 6.688 13.325 C 6.468 13.267 6.202999999999999 13.247 6.092 13 z M 9.047 14.566 C 8.959000000000001 13.486 9.243 14.746 9.047 14.566 z M 11.290000000000001 16.006 C 11.463000000000001 15.391 11.303 16.413 11.290000000000001 16.006 z M 6.235 12.51 C 6.788 12.392 8.535 13.48 6.930000000000001 12.82 C 6.753000000000001 12.624 6.3740000000000006 12.713000000000001 6.235 12.51 z M 10.981000000000002 14.876 C 11.041000000000002 13.770999999999999 11.311000000000002 14.216 10.983000000000002 15.036 L 10.981000000000002 14.876 z M 6.646000000000002 12.126 C 6.872000000000002 11.796 6.048000000000002 10.633 6.764000000000002 11.709 C 7.064000000000002 11.955 7.661000000000002 12.121 7.144000000000002 12.225 C 7.959000000000001 12.945 6.944000000000002 12.42 6.647000000000002 12.125 z M 10.746000000000002 14.532 C 10.901000000000002 13.272 10.883000000000003 15.269 10.746000000000002 14.532 z M 6.176000000000002 10.964 C 6.348000000000002 10.89 6.266000000000002 11.194 6.176000000000002 10.964 z M 7.246000000000002 11.601 C 7.521000000000003 11.023000000000001 7.754000000000002 12.245000000000001 7.246000000000002 11.601 z M 10.263000000000002 13.279 C 10.261000000000001 13.059 10.320000000000002 13.602 10.263000000000002 13.279 z M 10.088000000000001 12.893 C 9.670000000000002 11.860000000000001 10.488000000000001 13.440000000000001 10.088000000000001 12.893 z M 9.831000000000001 12.215 C 9.761000000000001 11.788 10.071000000000002 12.751 9.831000000000001 12.215 z M 10.249 11.535 C 9.961 11.029 10.612 9.305 10.685 10.375 C 10.382 11.209 10.598 11.675 10.808 10.555 C 11.198 9.674999999999999 10.724 12.292 10.248 11.535 z M 10.679 8.969000000000001 C 10.804 8.815000000000001 10.707 9.154000000000002 10.679 8.969000000000001 z M 9.96 23.12 C 9.790000000000001 22.970000000000002 9.982000000000001 23.214000000000002 9.96 23.12 z M 11.440000000000001 23.868000000000002 C 12.263000000000002 24.080000000000002 12.260000000000002 23.740000000000002 11.515 23.638 C 11.115 23.266000000000002 9.853000000000002 22.871000000000002 10.983 23.592000000000002 C 11.057 23.792 11.293000000000001 23.777 11.440000000000001 23.867 z M 8.520000000000001 21.928 C 8.973 22.268 10.227000000000002 22.886 9.166000000000002 22.058 C 9.524000000000003 21.642 8.481000000000002 21.419999999999998 8.826000000000002 21.142 C 7.946000000000002 20.602 8.131000000000002 20.642 8.748000000000003 20.669 C 7.690000000000003 20.196 8.901000000000003 20.232 8.844000000000003 19.989 C 8.436000000000003 19.909000000000002 6.818000000000003 19.269000000000002 7.770000000000003 20.041 C 6.802000000000003 19.548000000000002 7.540000000000003 20.225 7.247000000000003 20.154 C 6.247000000000003 19.884 8.127000000000004 20.908 7.090000000000003 20.654 C 7.657000000000004 21.104 8.618000000000004 21.807 7.330000000000004 21.13 C 7.160000000000004 21.374 8.252000000000004 21.744999999999997 8.530000000000003 21.93 z M 10.067000000000002 22.818 C 11.947000000000003 23.424000000000003 9.144000000000002 22.078000000000003 10.067000000000002 22.818 z M 17.987000000000002 27.616 C 18.011000000000003 27.242 17.73 27.936 17.987000000000002 27.616 z M 18.801000000000002 27.959 C 19.235000000000003 27.538999999999998 18.819000000000003 28.629 19.521 27.855999999999998 C 19.528000000000002 27.302999999999997 19.501 26.976 18.715 27.648 C 18.498 27.768 18.402 28.278 18.802 27.958 z M 5.878 19.84 C 5.745 19.316 4.944 19.318 5.878 19.84 z M 6.748 20.41 C 6.425 19.875 5.596 19.925 6.748 20.41 z M 11.693999999999999 23.393 C 12.177 23.823 13.911999999999999 23.708000000000002 12.28 23.446 C 12.04 23.089000000000002 10.747 23.176000000000002 11.693999999999999 23.393 z M 18.491999999999997 27.593 C 19.234999999999996 26.969 17.772 27.871 18.491999999999997 27.593 z M 20.037999999999997 28.655 C 20.042999999999996 28.455000000000002 19.717999999999996 28.742 20.037999999999997 28.655 z M 20.040999999999997 28.375 C 20.863999999999997 27.505 19.243999999999996 28.425 20.040999999999997 28.375 z M 3.74 18.05 C 3.04 17.05 3.3040000000000003 16.6 2.628 15.783000000000001 C 2.5 15.158000000000001 1.4680000000000002 13.740000000000002 2.0940000000000003 15.243000000000002 C 2.668 16.123 2.838 17.483000000000004 3.74 18.053 z M 19.78 28.096 C 21.295 27.118 19.16 27.67 19.78 28.096 z M 20.936 28.549 C 21.696 27.899 20.456 28.413 20.936 28.549 z M 5.62 18.735 C 5.837 18.412 5.0600000000000005 18.692999999999998 5.62 18.735 z M 20.695 28.240000000000002 C 21.429000000000002 27.767000000000003 20.525 27.840000000000003 20.562 28.283 L 20.695 28.240000000000002 z M 10.733 21.96 C 10.708 21.64 10.345 21.987000000000002 10.733 21.96 z M 11.348 22.314 C 11.152000000000001 21.918 11.048 22.376 11.348 22.314 z M 21.873 28.559 C 22.813000000000002 27.879 21.303 28.429000000000002 21.676000000000002 28.689 L 21.873 28.559 z M 21.513 28.385 C 22.28 27.743000000000002 20.703000000000003 28.669 21.513 28.385 z M 23.353 29.610000000000003 C 23.867 29.266000000000002 22.728 29.500000000000004 23.353 29.610000000000003 z M 6.093 18.500000000000004 C 6.7829999999999995 18.654000000000003 8.847999999999999 20.198000000000004 7.63 18.607000000000003 C 7.006 18.422000000000004 7.38 16.897000000000002 6.743 17.167 C 7.17 17.881 7.093 18.185000000000002 6.197 17.735000000000003 C 5.07 17.185000000000002 5.564 18.007 5.784 18.235000000000003 C 5.484 18.305000000000003 6.181 18.495000000000005 6.093999999999999 18.501000000000005 z M 2.953 16.020000000000003 C 3.0759999999999996 15.510000000000003 1.8159999999999998 13.210000000000003 2.3579999999999997 14.868000000000004 C 2.5529999999999995 15.215000000000003 2.5329999999999995 15.873000000000005 2.9529999999999994 16.020000000000003 z M 8.719 19.575000000000003 C 8.363 19.278000000000002 8.702 19.533 8.719 19.575000000000003 z M 9.593 19.779000000000003 C 9.593 19.239000000000004 8.627 19.559000000000005 9.593 19.779000000000003 z M 17.17 24.555000000000003 C 17.025000000000002 24.185000000000002 16.6 24.547000000000004 17.17 24.555000000000003 z M 17.534000000000002 24.821000000000005 C 17.480000000000004 24.614000000000004 17.334000000000003 24.861000000000004 17.534000000000002 24.821000000000005 z M 20.537000000000003 26.713000000000005 C 20.827 26.500000000000004 20.177000000000003 26.685000000000006 20.537000000000003 26.713000000000005 z M 4.52 16.422 C 5.345999999999999 16.102 3.635 16.194 4.52 16.422 z M 16.5 23.97 C 16.49 23.435 15.973 24.102999999999998 16.5 23.97 z M 4.193 15.66 C 4.723 15.48 3.7029999999999994 15.542 4.193 15.66 z M 5.733 16.406 C 5.723 16.23 5.569999999999999 16.473 5.733 16.406 z M 24.521 27.926 C 25.203 27.787999999999997 26.759 28.273 27.011000000000003 27.746 C 26.181000000000004 27.726 24.144000000000002 27.160999999999998 24.048000000000002 27.88 L 24.228 27.91 L 24.521 27.928 z M 6.223 16.53 C 6.234999999999999 15.988000000000001 5.801 16.51 6.223 16.53 z M 2.173 13.72 C 1.989 12.688 1.473 13.564 2.173 13.72 z M 3.138 13.963000000000001 C 3.15 13.631 2.254 13.665000000000001 3.138 13.963000000000001 z M 3.69 14.233 C 3.53 14.103 3.566 14.396 3.69 14.233 z M 7.163 16.46 C 7.327 16.310000000000002 6.776 16.35 7.163 16.46 z M 3.3230000000000004 13.620000000000001 C 3.2290000000000005 12.840000000000002 2.2030000000000003 13.503 3.3230000000000004 13.620000000000001 z M 1.3430000000000004 12.335 C 1.3150000000000004 11.975000000000001 1.1500000000000004 12.471 1.3430000000000004 12.335 z M 1.6380000000000003 12.113000000000001 C 1.5900000000000003 11.686000000000002 1.3850000000000002 12.167000000000002 1.6380000000000003 12.113000000000001 z M 3.2650000000000006 13.083000000000002 C 3.9530000000000003 12.813000000000002 2.0120000000000005 12.523000000000001 3.1250000000000004 13.033000000000001 L 3.2650000000000006 13.083000000000002 z M 25.043 26.54 C 25.483 26.136 24.483 26.415 25.043 26.54 z M 27.673 27.903 C 27.849999999999998 27.383 27.227999999999998 27.973 27.673 27.903 z M 3.43 12.235 C 3.503 11.729999999999999 2.8840000000000003 12.334999999999999 3.43 12.235 z M 1.1140000000000003 10.684999999999999 C 0.992 9.97 1.01 8.72 2.198 9.142 C 0.611 9.458 3.298 11.116 2.958 9.806 C 3.6260000000000003 9.838999999999999 4.264 9.411 3.9130000000000003 10.059 C 5.23 9.916 6.14 8.774 7.412 8.935 C 8.411999999999999 8.803 9.484 8.705 10.552 8.305 C 11.429 8.241999999999999 12.272 7.298 11.792 6.7379999999999995 C 10.596 6.638 9.344 6.786 8.022 7.05 C 6.557 7.354 5.227 7.933 3.7490000000000006 8.18 C 2.3090000000000006 8.374 4.039000000000001 8.713 3.6260000000000003 8.79 C 2.8760000000000003 9.049999999999999 4.523000000000001 9.225999999999999 3.5290000000000004 9.501999999999999 C 2.9150000000000005 9.384999999999998 2.2760000000000007 9.174 2.5390000000000006 8.527 C 1.1590000000000007 8.706999999999999 -0.05399999999999938 9.279 1.0370000000000006 10.683 L 1.1170000000000007 10.684 z M 4.442 9 C 4.765000000000001 7.808 6.175000000000001 9.98 4.972 9.16 C 4.829000000000001 9.052 4.5920000000000005 8.965 4.442 9 z M 4.505 8.422 C 4.9719999999999995 8.075000000000001 4.753 8.617 4.505 8.422 z M 5.098 8.432 C 5.141 7.884 6.4559999999999995 8.732000000000001 5.3149999999999995 8.629 L 5.098 8.432 z M 5.9079999999999995 8.106 C 6.204999999999999 7.759 5.994 8.413 5.9079999999999995 8.106 z M 6.116 7.966 C 6.609999999999999 7.373 8.908999999999999 7.586 7.215999999999999 7.908 C 6.765999999999999 7.5680000000000005 6.419 8.108 6.116 7.966 z M 9.116 7.503 C 9.042 5.883 10.608 8.078 9.116 7.503 z M 9.968 7.498 C 10.278 6.682 11.178 7.17 10.113 7.3340000000000005 C 10.136 7.421 10.081 7.756 9.968 7.498 z M 3.0949999999999998 11.825 C 4.0249999999999995 11.254999999999999 2.1079999999999997 11.331 3.0949999999999998 11.825 z M 3.7829999999999995 12.024999999999999 C 4.108999999999999 11.677999999999999 3.0829999999999993 11.884999999999998 3.7829999999999995 12.024999999999999 z M 1.757 10.57 C 2.287 10.16 1.1269999999999998 10.415000000000001 1.757 10.57 z M 29.227 27.755 C 29.242 27.281 28.821 27.968 29.227 27.755 z M 26.437 25.849999999999998 C 26.517 25.304999999999996 26.077 25.897 26.437 25.849999999999998 z M 29.997 27.939999999999998 C 30.74 27.942999999999998 32.249 27.709999999999997 30.632 27.709999999999997 C 30.378 27.749999999999996 29.152 27.74 29.997 27.939999999999998 z M 4.39 11.673 C 4.992 11.633000000000001 5.33 11.01 4.273 11.045 C 2.633 10.875 5.718999999999999 11.607 4.0729999999999995 11.397 C 3.8509999999999995 11.544 4.387 11.713000000000001 4.3999999999999995 11.672 z M 4.92 11.941 C 4.857 11.555000000000001 4.734 12.146 4.92 11.941 z M 5.55 10.265 C 5.81 9.941 5.1899999999999995 10.178 5.55 10.265 z M 3.55 6.921000000000001 C 4.624 6.556000000000001 6.092 6.146000000000001 6.6 7.101000000000001 C 6.084 6.481000000000001 6.3919999999999995 5.869000000000001 6.88 6.777000000000001 C 7.57 7.695000000000001 7.914 6.359000000000001 7.466 6.051000000000001 C 7.976 6.685000000000001 8.556000000000001 6.985000000000001 7.808 6.091000000000001 C 8.623 5.111000000000001 6.178 6.219000000000001 5.622 6.208000000000001 C 5.3549999999999995 6.328000000000001 2.862 6.844000000000001 3.552 6.921000000000001 z M 4.18 5.716000000000001 C 4.792 5.254000000000001 6.298 5.991000000000001 5.332 5.256000000000001 C 5.237 5.173000000000001 3.2169999999999996 5.8130000000000015 4.18 5.716000000000001 z M 6.412 5.808000000000001 C 7.128 5.8260000000000005 6.102 4.845000000000001 6.9559999999999995 5.290000000000001 C 6.816 4.832000000000001 5.962 4.747000000000001 5.544 4.563000000000001 C 5.308 4.981000000000001 6.023999999999999 5.813000000000001 6.411 5.808000000000001 z M 4.572 3.782000000000001 C 4.82 3.446000000000001 4.1370000000000005 3.952000000000001 4.572 3.782000000000001 z M 5.48 4 C 6.635000000000001 3.847 5.186000000000001 3.503 5.247000000000001 3.988 L 5.48 4 z M 3.776 2.67 C 2.963 1.6079999999999999 5.306 2.848 4.479 1.7369999999999999 C 3.7830000000000004 1.1839999999999997 3.116 2.3609999999999998 3.7760000000000002 2.67 z M 14.209999999999999 8.29 C 14.582999999999998 7.629999999999999 12.669999999999998 7.3999999999999995 13.959999999999999 8.056 C 14.078 8.095999999999998 14.052 8.335999999999999 14.209999999999999 8.29 z" stroke-linecap="round" />
</g>
</svg>