<?xml version="1.0" encoding="UTF-8" standalone="no" ?>
<!DOCTYPE svg PUBLIC "-//W3C//DTD SVG 1.1//EN" "http://www.w3.org/Graphics/SVG/1.1/DTD/svg11.dtd">
<svg xmlns="http://www.w3.org/2000/svg" xmlns:xlink="http://www.w3.org/1999/xlink" version="1.1" width="1080" height="1080" viewBox="0 0 1080 1080" xml:space="preserve">
<desc>Created with Fabric.js 5.2.4</desc>
<defs>
</defs>
<rect x="0" y="0" width="100%" height="100%" fill="transparent"></rect>
<g transform="matrix(1 0 0 1 540 540)" id="4930aa23-55df-48f4-ad73-41b00c29f91b"  >
<rect style="stroke: none; stroke-width: 1; stroke-dasharray: none; stroke-linecap: butt; stroke-dashoffset: 0; stroke-linejoin: miter; stroke-miterlimit: 4; fill: rgb(255,255,255); fill-rule: nonzero; opacity: 1; visibility: hidden;" vector-effect="non-scaling-stroke"  x="-540" y="-540" rx="0" ry="0" width="1080" height="1080" />
</g>
<g transform="matrix(1 0 0 1 540 540)" id="9f8f5496-585b-4503-a2e1-215aaf8f4ea4"  >
</g>
<g transform="matrix(15.09 0 0 15.09 497.69 555.16)"  >
<g style="" vector-effect="non-scaling-stroke"   >
		<g transform="matrix(1 0 0 1 13.84 7.97)"  >
<path style="stroke: none; stroke-width: 1; stroke-dasharray: none; stroke-linecap: butt; stroke-dashoffset: 0; stroke-linejoin: miter; stroke-miterlimit: 4; fill: rgb(47,64,106); fill-rule: nonzero; opacity: 1;" vector-effect="non-scaling-stroke"  transform=" translate(-45.84, -39.97)" d="M 51.733 20.414 L 51.733 43.487 L 32.14 54.974 L 31.96 55.138 L 31.96 63.834999999999994 L 32.14 63.998999999999995 L 59.726 48.065 L 59.726 15.934999999999995 L 59.463 15.934999999999995 L 51.685 20.284999999999997 L 51.685 20.464999999999996" stroke-linecap="round" />
</g>
		<g transform="matrix(1 0 0 1 -13.74 8)"  >
<path style="stroke: none; stroke-width: 1; stroke-dasharray: none; stroke-linecap: butt; stroke-dashoffset: 0; stroke-linejoin: miter; stroke-miterlimit: 4; fill: rgb(35,121,189); fill-rule: nonzero; opacity: 1;" vector-effect="non-scaling-stroke"  transform=" translate(-18.26, -40)" d="M 12.48 43.65 L 32.172 55.055 L 32.172 64 L 4.357 48 L 4.357 16 L 4.6370000000000005 16 L 12.399000000000001 20.512999999999998 L 12.481000000000002 20.776 L 12.481000000000002 43.75" stroke-linecap="round" />
</g>
		<g transform="matrix(1 0 0 1 0 -21.64)"  >
<path style="stroke: none; stroke-width: 1; stroke-dasharray: none; stroke-linecap: butt; stroke-dashoffset: 0; stroke-linejoin: miter; stroke-miterlimit: 4; fill: rgb(3,175,239); fill-rule: nonzero; opacity: 1;" vector-effect="non-scaling-stroke"  transform=" translate(-32, -10.36)" d="M 12.48 20.726 L 4.275 16 L 32.075 0 L 59.725 15.934 L 51.733000000000004 20.414 L 32.04 9.206 L 12.447 20.693" stroke-linecap="round" />
</g>
		<g transform="matrix(1 0 0 1 3.51 2.25)"  >
<path style="stroke: none; stroke-width: 1; stroke-dasharray: none; stroke-linecap: butt; stroke-dashoffset: 0; stroke-linejoin: miter; stroke-miterlimit: 4; fill: rgb(47,64,106); fill-rule: nonzero; opacity: 1;" vector-effect="non-scaling-stroke"  transform=" translate(-35.51, -34.25)" d="M 31.795 41.01 L 31.582 40.797 L 31.582 32.149 L 31.795 32.034 L 31.795 31.820999999999998 L 39.212 27.488999999999997 L 39.442 27.488999999999997 L 39.442 36.416 L 31.746000000000002 40.977999999999994" stroke-linecap="round" />
</g>
		<g transform="matrix(1 0 0 1 -4.18 2.25)"  >
<path style="stroke: none; stroke-width: 1; stroke-dasharray: none; stroke-linecap: butt; stroke-dashoffset: 0; stroke-linejoin: miter; stroke-miterlimit: 4; fill: rgb(35,121,189); fill-rule: nonzero; opacity: 1;" vector-effect="non-scaling-stroke"  transform=" translate(-27.82, -34.25)" d="M 23.967 36.743 L 23.967 27.47 L 24.18 27.47 L 31.73 31.868 L 31.73 41.025 L 23.902 36.742" stroke-linecap="round" />
</g>
		<g transform="matrix(1 0 0 1 -0.27 -4.56)"  >
<path style="stroke: none; stroke-width: 1; stroke-dasharray: none; stroke-linecap: butt; stroke-dashoffset: 0; stroke-linejoin: miter; stroke-miterlimit: 4; fill: rgb(3,175,239); fill-rule: nonzero; opacity: 1;" vector-effect="non-scaling-stroke"  transform=" translate(-31.73, -27.44)" d="M 31.664 22.925 L 23.968000000000004 27.487000000000002 L 31.795 32 L 39.491 27.503999999999998 L 31.663 22.875999999999998" stroke-linecap="round" />
</g>
		<g transform="matrix(1 0 0 1 -6.07 7.9)"  >
<path style="stroke: none; stroke-width: 1; stroke-dasharray: none; stroke-linecap: butt; stroke-dashoffset: 0; stroke-linejoin: miter; stroke-miterlimit: 4; fill: rgb(47,64,106); fill-rule: nonzero; opacity: 1;" vector-effect="non-scaling-stroke"  transform=" translate(-25.93, -39.9)" d="M 22.21 46.67 L 21.997 46.457 L 21.997 37.792 L 22.21 37.677 L 22.21 37.464 L 29.627000000000002 33.132 L 29.857000000000003 33.132 L 29.857000000000003 42.059 L 22.161 46.620999999999995" stroke-linecap="round" />
</g>
		<g transform="matrix(1 0 0 1 -13.74 7.89)"  >
<path style="stroke: none; stroke-width: 1; stroke-dasharray: none; stroke-linecap: butt; stroke-dashoffset: 0; stroke-linejoin: miter; stroke-miterlimit: 4; fill: rgb(35,121,189); fill-rule: nonzero; opacity: 1;" vector-effect="non-scaling-stroke"  transform=" translate(-18.27, -39.89)" d="M 14.384 42.388 L 14.384 33.116 L 14.597 33.116 L 22.147 37.513999999999996 L 22.147 46.67099999999999 L 14.384999999999998 42.38799999999999" stroke-linecap="round" />
</g>
		<g transform="matrix(1 0 0 1 -9.86 1.12)"  >
<path style="stroke: none; stroke-width: 1; stroke-dasharray: none; stroke-linecap: butt; stroke-dashoffset: 0; stroke-linejoin: miter; stroke-miterlimit: 4; fill: rgb(3,175,239); fill-rule: nonzero; opacity: 1;" vector-effect="non-scaling-stroke"  transform=" translate(-22.14, -33.12)" d="M 22.096 28.57 L 14.383 33.116 L 22.211 37.678 L 29.906999999999996 33.181999999999995 L 22.078999999999997 28.553999999999995" stroke-linecap="round" />
</g>
		<g transform="matrix(1 0 0 1 13.78 8.11)"  >
<path style="stroke: none; stroke-width: 1; stroke-dasharray: none; stroke-linecap: butt; stroke-dashoffset: 0; stroke-linejoin: miter; stroke-miterlimit: 4; fill: rgb(47,64,106); fill-rule: nonzero; opacity: 1;" vector-effect="non-scaling-stroke"  transform=" translate(-45.78, -40.11)" d="M 42.068 46.884 L 41.855 46.671 L 41.855 38.006 L 42.068 37.891 L 42.068 37.678 L 49.485 33.346 L 49.714999999999996 33.346 L 49.714999999999996 42.272999999999996 L 42.019 46.834999999999994" stroke-linecap="round" />
</g>
		<g transform="matrix(1 0 0 1 6.12 8.11)"  >
<path style="stroke: none; stroke-width: 1; stroke-dasharray: none; stroke-linecap: butt; stroke-dashoffset: 0; stroke-linejoin: miter; stroke-miterlimit: 4; fill: rgb(35,121,189); fill-rule: nonzero; opacity: 1;" vector-effect="non-scaling-stroke"  transform=" translate(-38.12, -40.11)" d="M 34.24 42.6 L 34.24 33.33 L 34.486000000000004 33.33 L 42.036 37.727999999999994 L 42.036 46.88499999999999 L 34.207 42.6" stroke-linecap="round" />
</g>
		<g transform="matrix(1 0 0 1 10 1.28)"  >
<path style="stroke: none; stroke-width: 1; stroke-dasharray: none; stroke-linecap: butt; stroke-dashoffset: 0; stroke-linejoin: miter; stroke-miterlimit: 4; fill: rgb(3,175,239); fill-rule: nonzero; opacity: 1;" vector-effect="non-scaling-stroke"  transform=" translate(-42, -33.28)" d="M 41.936 28.718 L 34.24 33.28 L 42.068000000000005 37.842 L 49.764 33.346 L 41.936 28.717999999999996" stroke-linecap="round" />
</g>
		<g transform="matrix(1 0 0 1 4.2 13.76)"  >
<path style="stroke: none; stroke-width: 1; stroke-dasharray: none; stroke-linecap: butt; stroke-dashoffset: 0; stroke-linejoin: miter; stroke-miterlimit: 4; fill: rgb(47,64,106); fill-rule: nonzero; opacity: 1;" vector-effect="non-scaling-stroke"  transform=" translate(-36.2, -45.76)" d="M 32.484 52.53 L 32.271 52.317 L 32.271 43.65 L 32.484 43.535 L 32.484 43.321999999999996 L 39.901 38.989999999999995 L 40.131 38.989999999999995 L 40.131 47.916999999999994 L 32.435 52.47899999999999" stroke-linecap="round" />
</g>
		<g transform="matrix(1 0 0 1 -3.48 13.77)"  >
<path style="stroke: none; stroke-width: 1; stroke-dasharray: none; stroke-linecap: butt; stroke-dashoffset: 0; stroke-linejoin: miter; stroke-miterlimit: 4; fill: rgb(35,121,189); fill-rule: nonzero; opacity: 1;" vector-effect="non-scaling-stroke"  transform=" translate(-28.52, -45.77)" d="M 24.64 48.246 L 24.64 38.99 L 24.853 38.99 L 32.403 43.388000000000005 L 32.403 52.545 L 24.641 48.245000000000005" stroke-linecap="round" />
</g>
		<g transform="matrix(1 0 0 1 0.41 6.96)"  >
<path style="stroke: none; stroke-width: 1; stroke-dasharray: none; stroke-linecap: butt; stroke-dashoffset: 0; stroke-linejoin: miter; stroke-miterlimit: 4; fill: rgb(3,175,239); fill-rule: nonzero; opacity: 1;" vector-effect="non-scaling-stroke"  transform=" translate(-32.41, -38.96)" d="M 32.353 34.43 L 24.64 38.99 L 32.484 43.486000000000004 L 40.18 38.99 L 32.352 34.428000000000004" stroke-linecap="round" />
</g>
		<g transform="matrix(1 0 0 1 3.51 -10.03)"  >
<path style="stroke: none; stroke-width: 1; stroke-dasharray: none; stroke-linecap: butt; stroke-dashoffset: 0; stroke-linejoin: miter; stroke-miterlimit: 4; fill: rgb(47,64,106); fill-rule: nonzero; opacity: 1;" vector-effect="non-scaling-stroke"  transform=" translate(-35.51, -21.97)" d="M 31.795 28.718 L 31.582 28.505 L 31.582 19.872999999999998 L 31.795 19.758 L 31.795 19.544999999999998 L 39.212 15.212999999999997 L 39.442 15.212999999999997 L 39.442 24.139999999999997 L 31.795 28.717999999999996" stroke-linecap="round" />
</g>
		<g transform="matrix(1 0 0 1 -4.18 -10.04)"  >
<path style="stroke: none; stroke-width: 1; stroke-dasharray: none; stroke-linecap: butt; stroke-dashoffset: 0; stroke-linejoin: miter; stroke-miterlimit: 4; fill: rgb(35,121,189); fill-rule: nonzero; opacity: 1;" vector-effect="non-scaling-stroke"  transform=" translate(-27.82, -21.96)" d="M 23.967 24.468 L 23.967 15.196 L 24.18 15.196 L 31.73 19.594 L 31.73 28.718000000000004 L 23.902 24.435000000000002" stroke-linecap="round" />
</g>
		<g transform="matrix(1 0 0 1 -0.27 -16.77)"  >
<path style="stroke: none; stroke-width: 1; stroke-dasharray: none; stroke-linecap: butt; stroke-dashoffset: 0; stroke-linejoin: miter; stroke-miterlimit: 4; fill: rgb(3,175,239); fill-rule: nonzero; opacity: 1;" vector-effect="non-scaling-stroke"  transform=" translate(-31.73, -15.23)" d="M 31.664 10.667 L 23.968000000000004 15.229 L 31.796000000000003 19.791 L 39.492000000000004 15.295 L 31.664000000000005 10.667" stroke-linecap="round" />
</g>
		<g transform="matrix(1 0 0 1 -6.07 -4.42)"  >
<path style="stroke: none; stroke-width: 1; stroke-dasharray: none; stroke-linecap: butt; stroke-dashoffset: 0; stroke-linejoin: miter; stroke-miterlimit: 4; fill: rgb(47,64,106); fill-rule: nonzero; opacity: 1;" vector-effect="non-scaling-stroke"  transform=" translate(-25.93, -27.58)" d="M 22.21 34.38 L 21.997 34.167 L 21.997 25.437 L 22.21 25.322000000000003 L 22.21 25.109 L 29.627000000000002 20.777 L 29.857000000000003 20.777 L 29.857000000000003 29.704 L 22.161 34.266" stroke-linecap="round" />
</g>
		<g transform="matrix(1 0 0 1 -13.74 -4.38)"  >
<path style="stroke: none; stroke-width: 1; stroke-dasharray: none; stroke-linecap: butt; stroke-dashoffset: 0; stroke-linejoin: miter; stroke-miterlimit: 4; fill: rgb(35,121,189); fill-rule: nonzero; opacity: 1;" vector-effect="non-scaling-stroke"  transform=" translate(-18.27, -27.62)" d="M 14.384 30.113 L 14.384 20.84 L 14.597 20.84 L 22.147 25.238 L 22.147 34.394999999999996 L 14.384999999999998 30.111999999999995" stroke-linecap="round" />
</g>
		<g transform="matrix(1 0 0 1 -9.86 -11.13)"  >
<path style="stroke: none; stroke-width: 1; stroke-dasharray: none; stroke-linecap: butt; stroke-dashoffset: 0; stroke-linejoin: miter; stroke-miterlimit: 4; fill: rgb(3,175,239); fill-rule: nonzero; opacity: 1;" vector-effect="non-scaling-stroke"  transform=" translate(-22.14, -20.87)" d="M 22.096 16.295 L 14.383 20.841 L 22.211 25.436 L 29.906999999999996 20.939999999999998 L 22.078999999999997 16.311999999999998" stroke-linecap="round" />
</g>
		<g transform="matrix(1 0 0 1 13.78 -4.17)"  >
<path style="stroke: none; stroke-width: 1; stroke-dasharray: none; stroke-linecap: butt; stroke-dashoffset: 0; stroke-linejoin: miter; stroke-miterlimit: 4; fill: rgb(47,64,106); fill-rule: nonzero; opacity: 1;" vector-effect="non-scaling-stroke"  transform=" translate(-45.78, -27.83)" d="M 42.068 34.593 L 41.855 34.38 L 41.855 25.73 L 42.068 25.615000000000002 L 42.068 25.402 L 49.485 21.07 L 49.714999999999996 21.07 L 49.714999999999996 29.997 L 42.019 34.559" stroke-linecap="round" />
</g>
		<g transform="matrix(1 0 0 1 6.12 -4.18)"  >
<path style="stroke: none; stroke-width: 1; stroke-dasharray: none; stroke-linecap: butt; stroke-dashoffset: 0; stroke-linejoin: miter; stroke-miterlimit: 4; fill: rgb(35,121,189); fill-rule: nonzero; opacity: 1;" vector-effect="non-scaling-stroke"  transform=" translate(-38.12, -27.82)" d="M 34.24 30.36 L 34.24 21.055 L 34.486000000000004 21.055 L 42.002 25.436999999999998 L 42.002 34.593999999999994 L 34.24 30.36" stroke-linecap="round" />
</g>
		<g transform="matrix(1 0 0 1 10 -10.93)"  >
<path style="stroke: none; stroke-width: 1; stroke-dasharray: none; stroke-linecap: butt; stroke-dashoffset: 0; stroke-linejoin: miter; stroke-miterlimit: 4; fill: rgb(3,175,239); fill-rule: nonzero; opacity: 1;" vector-effect="non-scaling-stroke"  transform=" translate(-42, -21.07)" d="M 41.936 16.51 L 34.24 21.07 L 42.068000000000005 25.632 L 49.764 21.136000000000003 L 41.936 16.508000000000003" stroke-linecap="round" />
</g>
		<g transform="matrix(1 0 0 1 4.2 1.46)"  >
<path style="stroke: none; stroke-width: 1; stroke-dasharray: none; stroke-linecap: butt; stroke-dashoffset: 0; stroke-linejoin: miter; stroke-miterlimit: 4; fill: rgb(47,64,106); fill-rule: nonzero; opacity: 1;" vector-effect="non-scaling-stroke"  transform=" translate(-36.2, -33.46)" d="M 32.484 40.205 L 32.271 39.992 L 32.271 31.376999999999995 L 32.484 31.261999999999997 L 32.484 31.048999999999996 L 39.901 26.716999999999995 L 40.131 26.716999999999995 L 40.131 35.64399999999999 L 32.484 40.20599999999999" stroke-linecap="round" />
</g>
		<g transform="matrix(1 0 0 1 -3.48 1.45)"  >
<path style="stroke: none; stroke-width: 1; stroke-dasharray: none; stroke-linecap: butt; stroke-dashoffset: 0; stroke-linejoin: miter; stroke-miterlimit: 4; fill: rgb(35,121,189); fill-rule: nonzero; opacity: 1;" vector-effect="non-scaling-stroke"  transform=" translate(-28.52, -33.45)" d="M 24.64 35.97 L 24.64 26.7 L 24.853 26.7 L 32.403 31.098 L 32.403 40.206 L 24.64 35.97" stroke-linecap="round" />
</g>
		<g transform="matrix(1 0 0 1 0.4 -5.29)"  >
<path style="stroke: none; stroke-width: 1; stroke-dasharray: none; stroke-linecap: butt; stroke-dashoffset: 0; stroke-linejoin: miter; stroke-miterlimit: 4; fill: rgb(3,175,239); fill-rule: nonzero; opacity: 1;" vector-effect="non-scaling-stroke"  transform=" translate(-32.4, -26.71)" d="M 32.353 22.154 L 24.64 26.7 L 32.468 31.262 L 40.164 26.766 L 32.354 22.156" stroke-linecap="round" />
</g>
</g>
</g>
</svg>